# xmcd
#
# Track frame offsets:
#	150
#	17575
#	33160
#	50035
#	65680
#	83285
#	100300
#	119950
#	140190
#	159045
#
# Disc length: 2368 seconds
#
# Revision: 4
# Processed by: cddbd v1.5PL3 Copyright (c) Steve Scherf et al.
# Submitted via: CDex 1.50Beta5
#
DISCID=82093e0a
DTITLE=テレサ・テン - テレサ・テン/トップ・テン
DYEAR=1987
DGENRE=Pop
TTITLE0=つぐない
TTITLE1=スキャンダル
TTITLE2=空港
TTITLE3=夜のフェリーボート
TTITLE4=ふるさとはどこですか
TTITLE5=愛人
TTITLE6=傷心
TTITLE7=別れの予感
TTITLE8=ジェルソミーナの歩いた道
TTITLE9=時の流れに身をまかせ
EXTD=
EXTT0=
EXTT1=
EXTT2=
EXTT3=
EXTT4=
EXTT5=
EXTT6=
EXTT7=
EXTT8=
EXTT9=
PLAYORDER=
